<?xml version="1.0" encoding="utf-8"?>
<!-- Generator: Adobe Illustrator 22.1.0, SVG Export Plug-In . SVG Version: 6.00 Build 0)  -->
<svg version="1.1" xmlns="http://www.w3.org/2000/svg" xmlns:xlink="http://www.w3.org/1999/xlink" x="0px" y="0px"
	 viewBox="0 0 1024 1024" style="enable-background:new 0 0 1024 1024;" xml:space="preserve">
<style type="text/css">
	.st0{display:none;}
	.st1{display:inline;opacity:0;fill:none;stroke:#D8D8D8;stroke-width:0.2;stroke-miterlimit:10;}
	.st2{display:inline;fill:#DFE8FF;}
	.st3{display:inline;}
	.st4{fill:#383838;}
	.st5{display:inline;fill:#FF5240;}
	.st6{fill:#FF5240;}
	.st7{fill:none;stroke:#383838;stroke-width:4;stroke-linecap:round;stroke-miterlimit:10;}
	.st8{display:inline;fill:#383838;}
	.st9{fill:#DFE8FF;}
	.st10{display:none;fill:none;stroke:#383838;stroke-width:4;stroke-linecap:round;stroke-linejoin:round;stroke-miterlimit:10;}
	.st11{display:inline;opacity:0;}
	.st12{fill:#D8D8D8;}
	.st13{display:inline;fill:#FFFFFF;}
	.st14{opacity:0;}
</style>
<g id="图层_1">
	<g class="st0">
	</g>
	<g class="st0">
	</g>
</g>
<g id="图层_2">
	<g class="st0">
		<rect class="st1" width="1024" height="1024"/>
		<path class="st2" d="M887.5,972.8H785.1V51.2h102.4c37.7,0,68.3,30.6,68.3,68.3v785.1C955.7,942.2,925.2,972.8,887.5,972.8z"/>
		<g class="st3">
			<path class="st4" d="M716.8,1014.9c-4.2,0-8.5-0.3-12.7-0.8L158,945.9c-51.1-6.4-89.7-50.1-89.7-101.6V179.7
				c0-51.5,38.6-95.2,89.7-101.6L704.1,9.9c29.1-3.7,58.5,5.4,80.5,24.8c22,19.4,34.6,47.4,34.6,76.8v801.1
				c0,29.4-12.6,57.3-34.6,76.8C765.8,1005.9,741.6,1014.9,716.8,1014.9z M712.6,946.4c9.8,1.2,19.4-1.7,26.8-8.3
				c7.4-6.6,11.5-15.7,11.5-25.6V111.5c0-9.9-4.1-19-11.5-25.6c-7.5-6.6-17-9.5-26.8-8.3l-546.1,68.3c-17.1,2.1-29.9,16.7-29.9,33.9
				v664.5c0,17.2,12.8,31.7,29.9,33.9L712.6,946.4z"/>
		</g>
		<path class="st5" d="M538.5,444.6c-4,0-7.8,0.3-11.7,0.8c-3.8-48.1-43.9-86-93-86c-51.6,0-93.4,41.8-93.4,93.4
			c0,3.1,0.2,6.1,0.5,9c-0.2,0-0.3,0-0.5,0c-46.6,0-84.4,37.8-84.4,84.4c0,46.6,37.8,84.4,84.4,84.4h198.1c51.4,0,93-41.6,93-93
			C631.5,486.2,589.8,444.6,538.5,444.6z"/>
	</g>
	<g class="st0">
		<rect x="1.1" y="0" class="st1" width="1021.8" height="1021.8"/>
		<path class="st2" d="M954.8,342.8h-17v579H171.4v34.1c0,37.6,30.5,68.1,68.1,68.1h715.3c37.6,0,68.1-30.5,68.1-68.1v-545
			C1022.9,373.3,992.4,342.8,954.8,342.8z"/>
		<g class="st3">
			<g>
				<path class="st6" d="M733.4,479H290.6c-18.8,0-34.1-15.3-34.1-34.1s15.3-34.1,34.1-34.1h442.8c18.8,0,34.1,15.3,34.1,34.1
					S752.2,479,733.4,479z"/>
			</g>
			<g>
				<path class="st6" d="M733.4,683.4H290.6c-18.8,0-34.1-15.3-34.1-34.1c0-18.8,15.3-34.1,34.1-34.1h442.8
					c18.8,0,34.1,15.3,34.1,34.1C767.5,668.1,752.2,683.4,733.4,683.4z"/>
			</g>
		</g>
		<line class="st7" x1="392.8" y1="34.1" x2="631.2" y2="34.1"/>
		<path class="st7" d="M649.2,172.5H376.7c-37.5,0-68.1-30.7-68.1-68.1v0c0-37.5,30.7-68.1,68.1-68.1h272.5
			c37.5,0,68.1,30.7,68.1,68.1v0C717.3,141.8,686.6,172.5,649.2,172.5z"/>
		<path class="st8" d="M852.6,138.4H797c-0.8-0.5-1.5-1.2-2.4-1.6L567,13.9c-34.4-18.6-75.6-18.6-110,0L229.4,136.8
			c-0.9,0.5-1.6,1.1-2.4,1.6h-55.6c-56.3,0-102.2,45.8-102.2,102.2v613.1c0,56.3,45.8,102.2,102.2,102.2h681.2
			c56.3,0,102.2-45.8,102.2-102.2V240.6C954.8,184.2,909,138.4,852.6,138.4z M489.3,73.9c14.2-7.7,31.1-7.7,45.3,0l119.6,64.5H369.8
			L489.3,73.9z M886.7,853.7c0,18.8-15.3,34.1-34.1,34.1H171.4c-18.8,0-34.1-15.3-34.1-34.1V240.6c0-18.8,15.3-34.1,34.1-34.1h681.2
			c18.8,0,34.1,15.3,34.1,34.1V853.7z"/>
	</g>
	<g class="st0">
		<rect class="st1" width="1024" height="1024"/>
		<path class="st2" d="M304,82.1c0,0,301,30.3,424.2,138.3c127.3,111.6,150.4,270.2,150.4,270.2V145.4c0,0,4.2-65.4-77.2-77.2H210.1
			L304,82.1z"/>
		<g class="st3">
			<path class="st4" d="M512,1006.9c-228.7,0-414.8-186.1-414.8-414.8V131.3c0-63,51.3-114.3,114.3-114.3h601
				c63,0,114.3,51.3,114.3,114.3v460.8c0,18.8-15.3,34.1-34.1,34.1c-18.9,0-34.1-15.3-34.1-34.1V131.3c0-25.4-20.6-46-46-46h-601
				c-25.4,0-46,20.6-46,46v460.8c0,191.1,155.5,346.5,346.5,346.5c18.8,0,34.1,15.3,34.1,34.1C546.1,991.7,530.9,1006.9,512,1006.9z
				"/>
		</g>
		<path class="st5" d="M920,723.4l-65.3,65.3c-13.1,13.1-34.5,13.1-47.6,0c-13.1-13.1-13.1-34.5,0-47.6l65.3-65.3
			c-51.7-30.5-119.2-23.7-163.6,20.7c-40,40-49.5,98.8-28.7,147.8l-81.4,81.4c-13.1,13.1-13.1,34.5,0,47.6l23.8,23.8
			c13.1,13.1,34.5,13.1,47.6,0l81.4-81.4c49,20.8,107.8,11.2,147.8-28.7C943.7,842.6,950.5,775,920,723.4z"/>
		<path class="st8" d="M716.8,393.6H307.2c-18.9,0-34.1-15.3-34.1-34.1v0c0-18.9,15.3-34.1,34.1-34.1h409.6
			c18.9,0,34.1,15.3,34.1,34.1v0C750.9,378.3,735.7,393.6,716.8,393.6z"/>
		<path class="st8" d="M614.4,598.4H307.2c-18.9,0-34.1-15.3-34.1-34.1v0c0-18.9,15.3-34.1,34.1-34.1h307.2
			c18.9,0,34.1,15.3,34.1,34.1v0C648.5,583.1,633.3,598.4,614.4,598.4z"/>
	</g>
	<g class="st0">
		<rect x="1.4" class="st1" width="1021.2" height="1021.2"/>
		<path class="st2" d="M951.6,1024H276.7c-39.2,0-71-28.9-71-64.6v-38.3l718.3,4.1l0-585.5l69.9,35.5c18.1,12.2,28.8,31.4,28.8,51.9
			v532.3C1022.6,995.1,990.8,1024,951.6,1024z"/>
		<path class="st5" d="M589.6,429.6c-33.5,0-62.3,18.7-77.6,46c-15.3-27.3-44.1-46-77.6-46c-49.3,0-89.3,40-89.3,89.3
			c0,20.6,6.1,44.7,6.1,44.7c24.4,89.2,99.2,142,137.6,163.9c14.5,8.2,31.9,8.2,46.4,0c38.4-21.9,113.2-74.7,137.6-163.9
			c0,0,6.1-24.1,6.1-44.7C678.9,469.6,638.9,429.6,589.6,429.6z"/>
		<g class="st3">
			<path class="st4" d="M849.4,963.1H174.5c-57.9,0-105.1-47.1-105.1-105.1V348.8c0-35.4,17.6-68.2,47.2-87.7L454.1,38.4
				c35.2-23.2,80.6-23.2,115.8,0l337.4,222.7c29.6,19.5,47.2,52.3,47.2,87.7V858C954.5,915.9,907.4,963.1,849.4,963.1z M512,89.1
				c-7.1,0-14.2,2-20.4,6.1L154.2,317.9c-10.4,6.9-16.6,18.4-16.6,30.9V858c0,20.4,16.6,37,37,37h674.9c20.4,0,37-16.6,37-37V348.8
				c0-12.5-6.2-24-16.6-30.9L532.4,95.2C526.2,91.1,519.1,89.1,512,89.1z"/>
		</g>
	</g>
	<g class="st0">
		<rect x="0" class="st1" width="1024" height="1024"/>
		<g class="st3">
			<path class="st9" d="M579.9,73.7c-42.7-10.9-85.7-6.6-123.5,9.1c0,0,0.1,0,0.1,0c137.9,35,221.3,175.2,186.2,313.1
				c-3.4,13.2-7.9,25.7-13.1,37.8c44.3-25.5,78.6-68.1,92.2-121.6C748.4,207.2,684.9,100.4,579.9,73.7z"/>
			<path class="st9" d="M591.1,455.3c144,87.8,216.3,288.7,194.4,499.2h121c17.7,0,32.2-14.5,32.2-32.2v-44.1
				C938.7,664.4,796.7,486,591.1,455.3z"/>
		</g>
		<g class="st3">
			<path class="st4" d="M904.5,978.7H119.5c-37.6,0-68.3-30.6-68.3-68.3v-50.2c0-186.6,117.7-352,288.1-416.3
				c-41.9-43.8-66.2-102.7-66.2-165c0-131.8,107.2-238.9,238.9-238.9S750.9,147.3,750.9,279c0,62.3-24.3,121.1-66.2,165
				c170.3,64.2,288,229.6,288,416.3v50.2C972.8,948.1,942.2,978.7,904.5,978.7z M512,108.3c-94.1,0-170.7,76.6-170.7,170.7
				c0,61.9,33.7,119.1,88,149.3c12.5,6.9,19.3,20.9,17.2,35c-2.2,14.1-12.9,25.4-26.9,28.3c-173.9,35.8-300.2,190.8-300.2,368.7
				v50.2h785.1v-50.2c0-177.9-126.2-332.9-300.2-368.7c-14-2.9-24.7-14.1-26.8-28.3c-2.2-14.1,4.7-28.1,17.1-35
				c54.3-30.1,88-87.3,88-149.3C682.7,184.9,606.1,108.3,512,108.3z"/>
		</g>
		<path class="st5" d="M597.3,670.6h-51.2v-51.2c0-18.8-15.4-34.1-34.1-34.1c-18.8,0-34.1,15.4-34.1,34.1v51.2h-51.2
			c-18.8,0-34.1,15.4-34.1,34.1c0,18.8,15.4,34.1,34.1,34.1h51.2V790c0,18.8,15.4,34.1,34.1,34.1c18.8,0,34.1-15.4,34.1-34.1v-51.2
			h51.2c18.8,0,34.1-15.4,34.1-34.1C631.5,685.9,616.1,670.6,597.3,670.6z"/>
	</g>
	<g class="st0">
		<rect x="0" class="st1" width="1024" height="1024"/>
		<g class="st3">
			<path class="st9" d="M847.7,204.2c10.1,37.7,15.6,77.3,15.6,118.2c0,251.9-204.2,456.1-456.1,456.1c-69.3,0-135-15.5-193.8-43.2
				c38.3,40,84.4,72.6,136,94.8v159.8l163.6-72.1l161,72.1V831.2C823,768.3,927.7,620.8,927.7,448.9
				C927.7,357.3,898,272.8,847.7,204.2z"/>
			<path class="st6" d="M526.4,284.3l41.1,83.2c2.2,4.5,6.4,7.5,11.4,8.2l91.8,13.3c12.4,1.8,17.3,17,8.4,25.7l-66.4,64.8
				c-3.6,3.5-5.2,8.5-4.3,13.3l15.7,91.4c2.1,12.3-10.8,21.7-21.9,15.9L519.9,557c-4.4-2.3-9.6-2.3-14,0l-82.1,43.2
				c-11.1,5.8-24-3.6-21.9-15.9l15.7-91.4c0.8-4.9-0.8-9.9-4.3-13.3l-66.4-64.8c-8.9-8.7-4-23.9,8.4-25.7l91.8-13.3
				c4.9-0.7,9.2-3.8,11.4-8.2l41.1-83.2C504.9,273,520.9,273,526.4,284.3z"/>
			<g>
				<path class="st4" d="M673.9,1024c-4.7,0-9.5-1-14-3l-147.2-65.9l-149.7,66c-10.5,4.7-22.7,3.7-32.4-2.6
					c-9.7-6.3-15.5-17.1-15.5-28.6V851.9C161.9,776.7,64,620.9,64,448.9C64,201.4,265.4,0,512.9,0s448.9,201.4,448.9,448.9
					c0,173.3-98.9,329.6-253.7,404.3v136.6c0,11.6-5.9,22.4-15.6,28.6C686.9,1022.1,680.4,1024,673.9,1024z M512.9,68.3
					c-209.9,0-380.6,170.7-380.6,380.6c0,152.3,90.5,289.7,230.5,349.8c12.5,5.4,20.7,17.7,20.7,31.4v107.4l115.7-51
					c8.8-3.9,18.9-3.9,27.7,0.1l112.9,50.6v-106c0-13.7,8.2-26.1,20.9-31.4c141.5-59.6,232.9-197.4,232.9-350.9
					C893.5,239,722.8,68.3,512.9,68.3z"/>
			</g>
			<path class="st10" d="M922.5,460.8c0-226.2-183.4-409.6-409.6-409.6S103.3,234.6,103.3,460.8c0,144,74.4,270.6,186.8,343.6v202.5
				L512,938.7l221.9,68.3V805.6C847.3,732.8,922.5,605.6,922.5,460.8z"/>
		</g>
	</g>
	<g class="st0">
		<rect y="0" class="st1" width="1024" height="1024"/>
		<path class="st2" d="M853.3,256c53.6,71.3,85.3,159.9,85.3,256c0,235.6-191,426.7-426.7,426.7c-96.1,0-184.7-31.8-256-85.3
			C333.8,957,457.8,1024,597.3,1024C833,1024,1024,833,1024,597.3C1024,457.8,957,333.8,853.3,256z"/>
		<path class="st5" d="M555.9,581.7l-192.7,99.3c-12.9,6.7-26.8-7.2-20.1-20.1l99.3-192.7c5.7-11.1,14.7-20.1,25.8-25.8l192.7-99.3
			c12.9-6.7,26.8,7.2,20.1,20.1l-99.3,192.7C576,566.9,566.9,576,555.9,581.7z"/>
		<g class="st3">
			<path class="st4" d="M512,972.8C257.9,972.8,51.2,766.1,51.2,512S257.9,51.2,512,51.2S972.8,257.9,972.8,512
				S766.1,972.8,512,972.8z M512,119.5c-216.4,0-392.5,176.1-392.5,392.5S295.6,904.5,512,904.5S904.5,728.4,904.5,512
				S728.4,119.5,512,119.5z"/>
		</g>
		<circle class="st4" cx="512" cy="512" r="34.1"/>
	</g>
	<g class="st0">
		<rect class="st1" width="1024" height="1024"/>
		<g class="st3">
			<path class="st9" d="M938.7,170.7h-34.1v682.7c0,37.7-30.6,68.3-68.3,68.3H256v34.1c0,37.7,30.6,68.3,68.3,68.3h614.4
				c37.7,0,68.3-30.6,68.3-68.3V238.9C1006.9,201.2,976.4,170.7,938.7,170.7z"/>
			<path class="st4" d="M836.3,34.1H382.7L119.5,297.4v555.9c0,56.5,45.9,102.4,102.4,102.4h614.4c56.5,0,102.4-45.9,102.4-102.4
				V136.5C938.7,80.1,892.7,34.1,836.3,34.1z M375.5,138v118.1c0,18.8-15.3,34.1-34.1,34.1H223.2L375.5,138z M870.4,853.3
				c0,18.8-15.3,34.1-34.1,34.1H221.9c-18.8,0-34.1-15.3-34.1-34.1V358.5h153.6c56.5,0,102.4-45.9,102.4-102.4V102.4h392.5
				c18.8,0,34.1,15.3,34.1,34.1V853.3z"/>
			<path class="st6" d="M529.1,785.1L529.1,785.1c-18.8,0-34.1-15.4-34.1-34.1V409.6c0-18.8,15.4-34.1,34.1-34.1h0
				c18.8,0,34.1,15.4,34.1,34.1v341.3C563.2,769.7,547.8,785.1,529.1,785.1z"/>
			<path class="st6" d="M358.4,785.1L358.4,785.1c-18.8,0-34.1-15.4-34.1-34.1V512c0-18.8,15.4-34.1,34.1-34.1h0
				c18.8,0,34.1,15.4,34.1,34.1v238.9C392.5,769.7,377.2,785.1,358.4,785.1z"/>
			<path class="st6" d="M699.7,785.1L699.7,785.1c-18.8,0-34.1-15.4-34.1-34.1V341.3c0-18.8,15.4-34.1,34.1-34.1h0
				c18.8,0,34.1,15.4,34.1,34.1v409.6C733.9,769.7,718.5,785.1,699.7,785.1z"/>
		</g>
	</g>
	<g class="st0">
		<rect y="0" class="st1" width="1024" height="1024"/>
		<g class="st3">
			<path class="st9" d="M191.9,763.7c0.8,1.4,1.6,2.7,2.5,4l0.6-1C193.9,765.8,192.9,764.7,191.9,763.7z"/>
			<path class="st9" d="M900.5,277.4c35,58.9,55.2,127.4,55.2,200.5v0c0,209.8-166.1,382.8-373.3,393.8l0.3,0.6h-21.5h-98.6H251.5
				l-49.3,85.3H531h98.6h21.5l-0.3-0.6C857.9,946,1024,773,1024,563.2v0C1024,451,976.4,349.4,900.5,277.4z"/>
		</g>
		<g class="st3">
			<path class="st4" d="M582.8,906.4H134c-12.2,0-23.5-6.5-29.6-17.1c-6.1-10.6-6.1-23.6,0-34.1l47.8-82.8
				C76.9,693,34.1,587.1,34.1,477.9c0-236.3,192.2-428.6,428.6-428.6h98.6c236.3,0,428.5,192.3,428.5,428.6
				c0,225.5-174.6,412-398.9,427.5C588.4,906.1,585.6,906.4,582.8,906.4z M193.1,838.2h383.1c1.4-0.3,2.9-0.5,4.4-0.5
				c191.2-10.2,341-168.2,341-359.8c0-198.7-161.6-360.3-360.3-360.3h-98.6c-198.7,0-360.3,161.6-360.3,360.3
				c0,99.4,42.2,195.6,115.8,263.8c11.7,10.8,14.3,28.3,6.3,42.1L193.1,838.2z"/>
		</g>
		<g class="st3">
			<path class="st6" d="M512,648.5L512,648.5c-18.8,0-34.1-15.4-34.1-34.1V341.3c0-18.8,15.4-34.1,34.1-34.1h0
				c18.8,0,34.1,15.4,34.1,34.1v273.1C546.1,633.2,530.8,648.5,512,648.5z"/>
			<path class="st6" d="M358.4,580.3L358.4,580.3c-18.8,0-34.1-15.4-34.1-34.1V409.6c0-18.8,15.4-34.1,34.1-34.1h0
				c18.8,0,34.1,15.4,34.1,34.1v136.5C392.5,564.9,377.2,580.3,358.4,580.3z"/>
			<path class="st6" d="M665.6,580.3L665.6,580.3c-18.8,0-34.1-15.4-34.1-34.1V409.6c0-18.8,15.4-34.1,34.1-34.1h0
				c18.8,0,34.1,15.4,34.1,34.1v136.5C699.7,564.9,684.4,580.3,665.6,580.3z"/>
		</g>
		<path class="st6" d="M379.4,291c-6.3,0-12.6,2.4-17.4,7.2c-17.7,17.7-29.5,40.5-33.7,65.1l-1.2,7c-6,35.3,1.4,71.6,20.8,101.7
			c17.4,27,39.5,59.4,75,94.9c35.5,35.5,67.9,57.5,94.9,75c23.3,15,50.3,22.8,77.6,22.8c8,0,16.1-0.7,24.1-2l7-1.2
			c24.7-4.2,47.4-16,65.1-33.7c9.6-9.6,9.6-25.2,0-34.8l-71.8-71.8c-2.4-2.4-5.6-3.6-8.7-3.6c-3.2,0-6.3,1.2-8.7,3.6l-33.1,33.1
			c-2.4,2.4-5.5,3.6-8.7,3.6c-2.1,0-4.3-0.5-6.2-1.7c-33.9-19.8-59.4-45.2-65.2-51c-5.8-5.8-35.7-35.8-55.5-69.7
			c-2.8-4.8-2-11,1.9-14.9l33.1-33.1c4.8-4.8,4.8-12.6,0-17.4l-71.8-71.8C392.1,293.4,385.8,291,379.4,291L379.4,291z"/>
	</g>
	<g class="st0">
		<rect class="st1" width="1024" height="1024"/>
		<path class="st2" d="M921.6,85.3H819.2c37.7,0,68.3,30.6,68.3,68.3v716.8c0,37.7-30.6,68.3-68.3,68.3h102.4
			c37.7,0,68.3-30.6,68.3-68.3V153.6C989.9,115.9,959.3,85.3,921.6,85.3z"/>
		<path class="st8" d="M819.2,51.2H238.9c-56.5,0-102.4,45.9-102.4,102.4v136.5H77.7c-18.8,0-34.1,15.3-34.1,34.1
			s15.3,34.1,34.1,34.1h58.8v119.5H77.7c-18.8,0-34.1,15.3-34.1,34.1c0,18.8,15.3,34.1,34.1,34.1h58.8v119.5H77.7
			c-18.8,0-34.1,15.3-34.1,34.1s15.3,34.1,34.1,34.1h58.8v136.5c0,56.5,45.9,102.4,102.4,102.4h580.3c56.5,0,102.4-45.9,102.4-102.4
			V153.6C921.6,97.1,875.7,51.2,819.2,51.2z M853.3,870.4c0,18.8-15.3,34.1-34.1,34.1H238.9c-18.8,0-34.1-15.3-34.1-34.1V733.9h43.6
			c18.8,0,34.1-15.3,34.1-34.1s-15.3-34.1-34.1-34.1h-43.6V546.1h43.6c18.8,0,34.1-15.3,34.1-34.1c0-18.9-15.3-34.1-34.1-34.1h-43.6
			V358.4h43.6c18.8,0,34.1-15.3,34.1-34.1s-15.3-34.1-34.1-34.1h-43.6V153.6c0-18.8,15.3-34.1,34.1-34.1h580.3
			c18.8,0,34.1,15.3,34.1,34.1V870.4z"/>
		<path class="st6" d="M598.9,493.5c22.7-12.6,38-36.7,38-64.5c0-40.7-33-73.7-73.7-73.7c-40.7,0-73.7,33-73.7,73.7
			c0,27.8,15.3,51.9,38,64.5c-67.3,13.8-117.9,73.4-117.9,144.8v18.1c0,6.8,5.5,12.3,12.3,12.3h282.6c6.8,0,12.3-5.5,12.3-12.3
			v-18.1C716.8,566.9,666.2,507.4,598.9,493.5z"/>
		<path class="st5" d="M425.1,341.3c-5.8,0-11.5,2.2-15.9,6.6c-16.2,16.2-26.9,37-30.8,59.5l-1.1,6.4c-5.5,32.2,1.3,65.3,19,92.9
			c15.9,24.7,36.1,54.3,68.5,86.7c32.4,32.4,62,52.6,86.7,68.5c21.3,13.7,45.9,20.9,70.9,20.9c7.3,0,14.7-0.6,22-1.9l6.4-1.1
			c22.5-3.8,43.3-14.6,59.5-30.8c8.8-8.8,8.8-23,0-31.8l-65.6-65.6c-2.2-2.2-5.1-3.3-8-3.3c-2.9,0-5.8,1.1-8,3.3l-30.2,30.2
			c-2.2,2.2-5.1,3.3-8,3.3c-1.9,0-3.9-0.5-5.7-1.5c-31-18.1-54.3-41.3-59.6-46.5c-5.3-5.3-32.6-32.7-50.7-63.7
			c-2.6-4.4-1.8-10,1.8-13.6l30.2-30.2c4.4-4.4,4.4-11.5,0-15.9L441,347.9C436.6,343.5,430.8,341.3,425.1,341.3L425.1,341.3z"/>
	</g>
	<g class="st0">
		<rect class="st1" width="1024" height="1024"/>
		<path class="st2" d="M848.7,250.2c14,45,21.6,92.8,21.6,142.4c0,263.9-213.9,477.8-477.8,477.8c-49.6,0-97.4-7.6-142.4-21.6
			c72.3,56.3,163.1,89.9,261.8,89.9c235.6,0,426.7-191,426.7-426.7C938.7,413.3,905,322.5,848.7,250.2z"/>
		<g class="st3">
			<path class="st4" d="M512,972.8C257.9,972.8,51.2,766.1,51.2,512S257.9,51.2,512,51.2S972.8,257.9,972.8,512
				S766.1,972.8,512,972.8z M512,119.5c-216.4,0-392.5,176.1-392.5,392.5S295.6,904.5,512,904.5S904.5,728.4,904.5,512
				S728.4,119.5,512,119.5z"/>
		</g>
		<circle class="st5" cx="512" cy="512" r="51.2"/>
		<circle class="st5" cx="341.3" cy="512" r="51.2"/>
		<circle class="st5" cx="682.7" cy="512" r="51.2"/>
	</g>
	<g class="st0">
		<rect class="st1" width="1024" height="1024"/>
		<path class="st2" d="M855,321.1c41.8-81.5,52.8-146,23.4-175.4c-3.6-3.6-7.9-6.4-12.5-8.8c-8.7,47.9-32.7,105.6-69.5,167.8
			c5.8,32.1,8.8,65.2,8.8,99c0,218.9-125.6,408.3-308.7,500.4c5.2,0.2,10.3,0.5,15.5,0.5c216.8,0,392.5-175.7,392.5-392.5
			C904.5,442.7,886.5,377.6,855,321.1z"/>
		<g class="st3">
			<path class="st6" d="M314.1,768.8c-11.2,0-22.1-5.5-28.7-15.5c-10.3-15.8-5.8-37,10-47.2c72.9-47.3,150.7-111.5,224.9-185.7
				c73.3-73.3,136.9-150.2,184.2-222.5c10.3-15.8,31.4-20.2,47.3-9.9c15.8,10.3,20.2,31.5,9.9,47.2
				C712,411.4,645.2,492.1,568.7,568.7c-77.5,77.5-159.1,144.8-236,194.7C327,767.1,320.5,768.8,314.1,768.8z"/>
		</g>
		<g class="st3">
			<path class="st4" d="M512,938.7c-66.5,0-132.3-15.6-191.5-45.4c-116,55.4-172.2,36.1-199,9.2c-26.9-26.9-46.2-83,9.2-199.1
				C101,644.3,85.3,578.5,85.3,512C85.3,276.7,276.7,85.3,512,85.3c66.5,0,132.3,15.6,191.5,45.4c116-55.4,172.2-36.1,199.1-9.2
				c26.8,26.8,46.1,83-9.2,199c29.7,59.2,45.4,125,45.4,191.5C938.7,747.3,747.3,938.7,512,938.7z M321.7,816.2l16,8.9
				c53.1,29.6,113.3,45.3,174.3,45.3c197.6,0,358.4-160.8,358.4-358.4c0-61-15.6-121.3-45.3-174.3l-8.9-16l8.3-16.3
				c44.2-86.3,39.5-125.9,29.7-135.7c-9.8-9.8-49.4-14.6-135.7,29.7l-16.3,8.3l-16-8.9C633.3,169.3,573,153.6,512,153.6
				c-197.6,0-358.4,160.8-358.4,358.4c0,61,15.6,121.2,45.3,174.3l8.9,16l-8.3,16.3c-44.2,86.3-39.5,125.9-29.7,135.7
				c9.8,9.8,49.4,14.5,135.7-29.7L321.7,816.2z"/>
		</g>
	</g>
	<g class="st0">
		<rect class="st1" width="1024" height="1024"/>
		<g class="st3">
			<path class="st9" d="M955.7,467.9h-34.1v385.4c0,37.7-30.6,68.3-68.3,68.3h-68.3H204.8v34.1c0,37.7,30.6,68.3,68.3,68.3h614.4
				h68.3c37.7,0,68.3-30.6,68.3-68.3V536.2C1024,498.5,993.4,467.9,955.7,467.9z"/>
			<path class="st9" d="M785.1,365.5h68.3c12.5,0,24.1,3.6,34.1,9.5V238.9c0-37.7-30.6-68.3-68.3-68.3h-34.1V365.5z"/>
		</g>
		<g class="st3">
			<path class="st4" d="M853.3,331.4h-51.2V136.5c0-56.5-45.9-102.4-102.4-102.4H170.7c-56.5,0-102.4,45.9-102.4,102.4v716.8
				c0,56.5,45.9,102.4,102.4,102.4H768h85.3c56.5,0,102.4-45.9,102.4-102.4V433.8C955.7,377.3,909.8,331.4,853.3,331.4z
				 M887.5,853.3c0,18.8-15.3,34.1-34.1,34.1H768H170.7c-18.8,0-34.1-15.3-34.1-34.1V136.5c0-18.8,15.3-34.1,34.1-34.1h529.1
				c18.8,0,34.1,15.3,34.1,34.1v583.1c0,18.9,15.3,34.1,34.1,34.1c18.9,0,34.1-15.3,34.1-34.1v-320h51.2c18.8,0,34.1,15.3,34.1,34.1
				V853.3z"/>
			<g>
				<g>
					<path class="st6" d="M588.8,426.7H281.6c-18.9,0-34.1-15.3-34.1-34.1c0-18.9,15.3-34.1,34.1-34.1h307.2
						c18.9,0,34.1,15.3,34.1,34.1C622.9,411.4,607.7,426.7,588.8,426.7z"/>
				</g>
				<g>
					<path class="st6" d="M588.8,631.5H281.6c-18.9,0-34.1-15.3-34.1-34.1c0-18.9,15.3-34.1,34.1-34.1h307.2
						c18.9,0,34.1,15.3,34.1,34.1C622.9,616.2,607.7,631.5,588.8,631.5z"/>
				</g>
			</g>
		</g>
	</g>
	<g class="st0">
		<rect class="st1" width="1024" height="1024"/>
		<path class="st2" d="M830.7,350.7c1.5,15,2.2,30.2,2.2,45.6c0,258.8-209.8,468.7-468.7,468.7c-49.6,0-97.4-7.8-142.2-22
			c4.2,4.6,8,9.3,12.4,13.8c153.3,153.3,401.8,153.3,555.1,0C927.5,718.8,940.9,504.1,830.7,350.7z"/>
		<g class="st3">
			<path class="st6" d="M499.7,770.8c-5.8,0-11.7-1.5-17-4.6c-16.3-9.4-21.9-30.3-12.5-46.6l68.1-117.9H426.7
				c-12.3,0-23.6-6.6-29.7-17.3c-6.1-10.7-5.9-23.8,0.4-34.4l106.3-177.8c9.7-16.2,30.7-21.4,46.8-11.8
				c16.2,9.7,21.5,30.6,11.8,46.8l-75.4,126.2h110.5c12.2,0,23.5,6.5,29.6,17.1c6.1,10.6,6.1,23.6,0,34.1l-97.6,169.1
				C522.9,764.7,511.5,770.8,499.7,770.8z"/>
		</g>
		<g class="st3">
			<path class="st4" d="M512,1005.8c-114,0-221.1-44.4-301.7-125c-166.4-166.4-166.4-437,0-603.4L439.6,48.2
				c39.9-39.9,104.9-40,144.8,0l229.3,229.3c80.6,80.6,125,187.7,125,301.7c0,114-44.4,221.1-125,301.7
				C733.1,961.4,626,1005.8,512,1005.8z M512,86.5c-8.8,0-17.5,3.3-24.1,10L258.6,325.7c-139.7,139.7-139.7,367.1,0,506.9
				c67.7,67.7,157.7,105,253.4,105c95.8,0,185.8-37.3,253.4-105c67.7-67.7,105-157.7,105-253.4c0-95.7-37.3-185.7-105-253.4l0,0
				L536.1,96.4C529.5,89.8,520.7,86.5,512,86.5z"/>
		</g>
	</g>
	<g class="st0">
		<g class="st11">
			<path class="st12" d="M1024,1026H0V2h1024V1026z M3.4,1022.6h1017.2V5.4H3.4V1022.6z"/>
		</g>
		<g class="st3">
			<path class="st9" d="M955.5,37.1H819.4c37.4,0,68,30.6,68,68v816.5c0,37.4-30.6,68-68,68h136.1c37.4,0,68-30.6,68-68V105.1
				C1023.5,67.7,992.9,37.1,955.5,37.1z"/>
		</g>
		<g class="st3">
			<path class="st4" d="M819.4,1023.7H173c-56.3,0-102.1-45.8-102.1-102.1V105.1C70.9,48.8,116.7,3.1,173,3.1h646.4
				c56.3,0,102.1,45.8,102.1,102.1v816.5C921.4,977.9,875.7,1023.7,819.4,1023.7z M173,71.1c-18.8,0-34,15.3-34,34v816.5
				c0,18.8,15.3,34,34,34h646.4c18.8,0,34-15.3,34-34V105.1c0-18.8-15.3-34-34-34H173z"/>
		</g>
		<g class="st3">
			<circle class="st6" cx="496.2" cy="726" r="170.1"/>
		</g>
		<path class="st13" d="M513.2,598.4c-14,0-25.5,11.5-25.5,25.5v108.4L435.1,785c-9.9,9.9-9.9,26.2,0,36.1c9.9,9.9,26.2,9.9,36.1,0
			l59.8-59.8c2.5-2.5,4.5-5.4,5.9-8.7c0-0.1,0-0.2,0.1-0.2c1.1-2.9,1.8-6,1.8-9.3V623.9C538.7,609.9,527.2,598.4,513.2,598.4z"/>
		<g class="st3">
			<path class="st4" d="M683.3,241.2H309.1c-18.8,0-34-15.2-34-34s15.2-34,34-34h374.2c18.8,0,34,15.2,34,34
				S702.1,241.2,683.3,241.2z"/>
		</g>
		<g class="st3">
			<path class="st4" d="M683.3,411.3H309.1c-18.8,0-34-15.2-34-34c0-18.8,15.2-34,34-34h374.2c18.8,0,34,15.2,34,34
				C717.3,396.1,702.1,411.3,683.3,411.3z"/>
		</g>
	</g>
	<g>
		<g class="st14">
			<path class="st12" d="M1024,1024H0.7V0.7H1024V1024z M4.1,1020.6h1016.5V4.1H4.1V1020.6z"/>
		</g>
		<g>
			<path class="st9" d="M975.6,267.3l-75.9,30.3L635.3,959.1l53.3,53.3c17.3,17.3,46.5,11.2,55.6-11.4l275.7-689.4
				C1030.9,283.8,1003.3,256.2,975.6,267.3z"/>
		</g>
		<g>
			<path class="st4" d="M600.2,1023c-17.8,0-35.1-7-48-19.9L19.9,470.8C3.7,454.6-3.2,431.5,1.4,409c4.6-22.5,20.1-41,41.4-49.5
				L929.7,4.9C955-5.2,983.8,0.7,1003,20c19.3,19.3,25.2,48,15.1,73.3L663.4,980.2c-8.5,21.3-27,36.8-49.5,41.4
				C609.4,1022.5,604.8,1023,600.2,1023z M954.9,68L68,422.7L600.3,955L954.9,68z M954.9,68L954.9,68L954.9,68z M942.3,36.5h0.2
				H942.3z"/>
		</g>
		<g>
			<path class="st6" d="M412.5,644.4c-8.7,0-17.4-3.3-24-10c-13.3-13.3-13.3-34.8,0-48.1l232-232c13.3-13.3,34.8-13.3,48.1,0
				c13.3,13.3,13.3,34.8,0,48.1l-232,232C429.9,641.1,421.2,644.4,412.5,644.4z"/>
		</g>
	</g>
</g>
</svg>
